<svg width="81" height="81" viewBox="0 0 81 81" fill="none" xmlns="http://www.w3.org/2000/svg">
<path d="M22.7846 63.768C24.4852 65.1801 27.2696 66.2848 31.6665 65.4767V70.5C31.6665 70.8643 31.5572 71.2006 31.3401 71.4151C31.1443 71.6085 30.7802 71.7818 30.085 71.679C17.0696 67.2998 7.6665 54.9963 7.6665 40.5C7.6665 31.792 11.1257 23.4407 17.2832 17.2833C20.332 14.2344 23.9515 11.8159 27.9351 10.1659C31.9186 8.51589 36.1881 7.66663 40.4998 7.66663C44.8116 7.66663 49.0811 8.51589 53.0646 10.1659C57.0481 11.8159 60.6677 14.2344 63.7165 17.2833C66.7654 20.3321 69.1839 23.9517 70.8339 27.9352C72.4839 31.9187 73.3332 36.1882 73.3332 40.5C73.3332 54.9976 63.9615 67.2692 50.9435 71.6804C50.231 71.7983 49.8614 71.6229 49.6637 71.4276C49.4431 71.2096 49.3332 70.8656 49.3332 70.5V61.3666C49.3332 58.7517 48.5777 56.8202 47.5808 55.5737C51.0173 55.1027 54.5262 54.1359 57.2572 51.8635C60.2768 49.3507 62.2665 45.3104 62.2665 38.8333C62.2665 35.1245 61.0316 32.111 58.9075 29.6916C59.3435 28.4508 60.1982 25.0706 58.4629 20.8113L58.3749 20.5953L58.1528 20.5239L57.9998 21C58.1528 20.5239 58.1524 20.5238 58.1519 20.5236L58.1508 20.5233L58.1485 20.5226L58.1431 20.5209L58.1292 20.5168C58.1185 20.5137 58.105 20.5101 58.0886 20.506C58.056 20.4978 58.0121 20.4879 57.9567 20.4778C57.8459 20.4576 57.6896 20.4367 57.4866 20.4271C57.0801 20.4078 56.4888 20.4336 55.7018 20.598C54.1597 20.9202 51.8703 21.7734 48.7446 23.8573C46.1259 23.1515 43.2952 22.8 40.4998 22.8C37.7044 22.8 34.8738 23.1515 32.2551 23.8573C29.1294 21.7734 26.84 20.9202 25.2979 20.598C24.5108 20.4336 23.9195 20.4078 23.5131 20.4271C23.31 20.4367 23.1538 20.4576 23.043 20.4778C22.9876 20.4879 22.9437 20.4978 22.911 20.506C22.8947 20.5101 22.8812 20.5137 22.8705 20.5168L22.8566 20.5209L22.8512 20.5226L22.8489 20.5233L22.8478 20.5236C22.8473 20.5238 22.8468 20.5239 22.9998 21L22.8468 20.5239L22.6248 20.5953L22.5368 20.8113C20.8015 25.0706 21.6562 28.4508 22.0922 29.6916C19.9681 32.111 18.7332 35.1245 18.7332 38.8333C18.7332 45.2934 20.7142 49.341 23.7199 51.8661C26.4435 54.1543 29.9445 55.136 33.3729 55.6089C32.6814 56.5014 32.1123 57.7432 31.8481 59.344C30.9009 59.7166 29.4239 60.1535 27.8681 60.0185C26.198 59.8736 24.3983 59.0688 23.0338 56.6849L23.0294 56.6771L23.0107 56.6447C22.9947 56.6174 22.9717 56.579 22.9417 56.5309C22.8818 56.4347 22.7938 56.2998 22.6781 56.1383C22.447 55.816 22.1027 55.3845 21.6472 54.9445C20.7399 54.0681 19.3601 53.129 17.5348 53.0012L17.5224 53.0003L17.51 53.0001L17.4998 53.5C17.51 53.0001 17.5099 53.0001 17.5097 53.0001L17.5093 53L17.5082 53L17.5052 53L17.4957 52.9999L17.4635 52.9997C17.4365 52.9997 17.3986 53.0001 17.3521 53.0013C17.2597 53.0038 17.1313 53.0098 16.9868 53.0243C16.7178 53.0514 16.3171 53.1143 16.0039 53.2873C15.8423 53.3766 15.6548 53.522 15.5507 53.7552C15.4392 54.005 15.4609 54.2696 15.5628 54.5104C15.6592 54.7384 15.8317 54.9594 16.0566 55.1787C16.2852 55.4016 16.5911 55.6448 16.985 55.9132L17.0167 55.9348L17.0487 55.95L17.0492 55.9503L17.0492 55.9503L17.0496 55.9505L17.0503 55.9508L17.0508 55.951L17.0591 55.9554C17.0697 55.9609 17.0879 55.9707 17.1133 55.9853C17.1639 56.0144 17.2427 56.0625 17.3443 56.1329C17.5475 56.2736 17.8423 56.5039 18.186 56.8515C18.8702 57.5436 19.755 58.7072 20.4955 60.5687L20.4974 60.5746C20.5026 60.5905 20.51 60.6122 20.5197 60.6395C20.5391 60.6941 20.5678 60.7707 20.6073 60.8657C20.6861 61.0555 20.808 61.3194 20.984 61.6272C21.3355 62.2423 21.906 63.0384 22.7846 63.768Z" fill="black" stroke="white"/>
</svg>
